<svg xmlns="http://www.w3.org/2000/svg" viewBox="0 0 24 24" fill="#217346"><path d="M23 1.5q.41 0 .7.3.3.29.3.7v19q0 .41-.3.7-.29.3-.7.3H7q-.41 0-.7-.3-.3-.29-.3-.7V18H1q-.41 0-.7-.3-.3-.29-.3-.7V7q0-.41.3-.7Q.58 6 1 6h5V2.5q0-.41.3-.7.29-.3.7-.3zM1 16.5h14v-9H1zM23 22V2H7v4h8q.41 0 .7.3.3.29.3.7v10q0 .41-.3.7-.29.3-.7.3H7v4zM10.54 7.54L8.82 12.04l1.72 4.5H8.8l-.96-2.83L6.87 16.5H5.13l1.72-4.46L5.13 7.54h1.74l.96 2.83.97-2.83zM23 16.5V18h-5v-1.5zM23 13v1.5h-5V13zm0-3.5V11h-5V9.5zm0-3.5V7.5h-5V6z"/></svg>